<?xml version="1.0" encoding="utf-8"?>
<!-- Generator: Adobe Illustrator 15.0.2, SVG Export Plug-In . SVG Version: 6.00 Build 0)  -->
<!DOCTYPE svg PUBLIC "-//W3C//DTD SVG 1.1//EN" "http://www.w3.org/Graphics/SVG/1.1/DTD/svg11.dtd">
<svg version="1.1" id="Layer_1" xmlns="http://www.w3.org/2000/svg" xmlns:xlink="http://www.w3.org/1999/xlink" x="0px" y="0px"
	 width="161.481px" height="161.468px" viewBox="0 0 161.481 161.468" enable-background="new 0 0 161.481 161.468"
	 xml:space="preserve">
<polygon fill="none" stroke="#C6C6C5" stroke-linecap="round" stroke-linejoin="round" stroke-miterlimit="10" points="
	82.038,137.248 57.695,46.996 106.382,46.996 "/>
<polygon fill="none" stroke="#C6C6C5" stroke-linecap="round" stroke-linejoin="round" stroke-miterlimit="10" points="
	110.084,128.887 43.875,62.898 86.04,38.554 "/>
<polygon fill="none" stroke="#C6C6C5" stroke-linecap="round" stroke-linejoin="round" stroke-miterlimit="10" points="
	130.295,107.805 39.962,83.762 64.308,41.598 "/>
<polygon fill="none" stroke="#C6C6C5" stroke-linecap="round" stroke-linejoin="round" stroke-miterlimit="10" points="
	137.259,79.442 47.007,103.786 47.009,55.099 "/>
<polygon fill="none" stroke="#C6C6C5" stroke-linecap="round" stroke-linejoin="round" stroke-miterlimit="10" points="
	129.107,51.397 63.12,117.605 38.776,75.439 "/>
<polygon fill="none" stroke="#C6C6C5" stroke-linecap="round" stroke-linejoin="round" stroke-miterlimit="10" points="
	108.027,31.186 83.982,121.517 41.819,97.172 "/>
<polygon fill="none" stroke="#C6C6C5" stroke-linecap="round" stroke-linejoin="round" stroke-miterlimit="10" points="
	79.664,24.22 104.008,114.474 55.32,114.472 "/>
<polygon fill="none" stroke="#C6C6C5" stroke-linecap="round" stroke-linejoin="round" stroke-miterlimit="10" points="
	51.619,32.371 117.827,98.361 75.661,122.704 "/>
<polygon fill="none" stroke="#C6C6C5" stroke-linecap="round" stroke-linejoin="round" stroke-miterlimit="10" points="
	31.407,53.453 121.738,77.498 97.395,119.661 "/>
<polygon fill="none" stroke="#C6C6C5" stroke-linecap="round" stroke-linejoin="round" stroke-miterlimit="10" points="
	24.222,81.817 114.475,57.473 114.475,106.16 "/>
<polygon fill="none" stroke="#C6C6C5" stroke-linecap="round" stroke-linejoin="round" stroke-miterlimit="10" points="
	32.593,109.863 98.582,43.655 122.925,85.818 "/>
<polygon fill="none" stroke="#C6C6C5" stroke-linecap="round" stroke-linejoin="round" stroke-miterlimit="10" points="
	53.675,130.076 77.719,39.741 119.883,64.086 "/>
</svg>
