<?xml version="1.0" encoding="utf-8"?>
<!-- Generator: Adobe Illustrator 15.0.2, SVG Export Plug-In . SVG Version: 6.00 Build 0)  -->
<!DOCTYPE svg PUBLIC "-//W3C//DTD SVG 1.1//EN" "http://www.w3.org/Graphics/SVG/1.1/DTD/svg11.dtd">
<svg version="1.1" id="Layer_1" xmlns="http://www.w3.org/2000/svg" xmlns:xlink="http://www.w3.org/1999/xlink" x="0px" y="0px"
	 width="161.48px" height="161.469px" viewBox="0 0 161.48 161.469" enable-background="new 0 0 161.48 161.469"
	 xml:space="preserve">
<polygon fill="none" stroke="#D3D3D3" stroke-width="2" stroke-linecap="round" stroke-linejoin="round" stroke-miterlimit="10" points="
	82.297,148.551 53.085,40.248 111.51,40.248 "/>
<polygon fill="none" stroke="#D3D3D3" stroke-width="2" stroke-linecap="round" stroke-linejoin="round" stroke-miterlimit="10" points="
	115.952,138.517 36.502,59.331 87.1,30.118 "/>
<polygon fill="none" stroke="#D3D3D3" stroke-width="2" stroke-linecap="round" stroke-linejoin="round" stroke-miterlimit="10" points="
	140.205,113.219 31.806,84.368 61.021,33.771 "/>
<polygon fill="none" stroke="#D3D3D3" stroke-width="2" stroke-linecap="round" stroke-linejoin="round" stroke-miterlimit="10" points="
	148.563,79.183 40.26,108.396 40.262,49.972 "/>
<polygon fill="none" stroke="#D3D3D3" stroke-width="2" stroke-linecap="round" stroke-linejoin="round" stroke-miterlimit="10" points="
	138.78,45.529 59.596,124.979 30.382,74.38 "/>
<polygon fill="none" stroke="#D3D3D3" stroke-width="2" stroke-linecap="round" stroke-linejoin="round" stroke-miterlimit="10" points="
	113.484,21.276 84.629,129.674 34.033,100.459 "/>
<polygon fill="none" stroke="#D3D3D3" stroke-width="2" stroke-linecap="round" stroke-linejoin="round" stroke-miterlimit="10" points="
	79.448,12.918 108.661,121.222 50.235,121.219 "/>
<polygon fill="none" stroke="#D3D3D3" stroke-width="2" stroke-linecap="round" stroke-linejoin="round" stroke-miterlimit="10" points="
	45.795,22.698 125.244,101.886 74.645,131.097 "/>
<polygon fill="none" stroke="#D3D3D3" stroke-width="2" stroke-linecap="round" stroke-linejoin="round" stroke-miterlimit="10" points="
	21.54,47.996 129.937,76.85 100.725,127.446 "/>
<polygon fill="none" stroke="#D3D3D3" stroke-width="2" stroke-linecap="round" stroke-linejoin="round" stroke-miterlimit="10" points="
	12.918,82.033 121.221,52.821 121.221,111.245 "/>
<polygon fill="none" stroke="#D3D3D3" stroke-width="2" stroke-linecap="round" stroke-linejoin="round" stroke-miterlimit="10" points="
	22.963,115.688 102.151,36.239 131.362,86.835 "/>
<polygon fill="none" stroke="#D3D3D3" stroke-width="2" stroke-linecap="round" stroke-linejoin="round" stroke-miterlimit="10" points="
	48.262,139.944 77.115,31.542 127.711,60.756 "/>
</svg>
