<?xml version="1.0" ?><!DOCTYPE svg  PUBLIC '-//W3C//DTD SVG 1.1//EN'  'http://www.w3.org/Graphics/SVG/1.1/DTD/svg11.dtd'><svg enable-background="new 0 0 100 100" height="100px" id="Layer_1" version="1.1" viewBox="0 0 100 100" width="100px" xml:space="preserve" xmlns="http://www.w3.org/2000/svg" xmlns:xlink="http://www.w3.org/1999/xlink"><g><path d="M49.621,3.971c-25.353,0-45.979,20.625-45.979,45.978s20.626,45.978,45.979,45.978c25.352,0,45.977-20.625,45.977-45.978   S74.973,3.971,49.621,3.971z M49.621,93.926c-24.25,0-43.979-19.728-43.979-43.978S25.371,5.971,49.621,5.971   c24.249,0,43.977,19.728,43.977,43.978S73.87,93.926,49.621,93.926z"/><path d="M50.474,61.252c-4.173,0-7.441,2.37-7.441,5.395c0,3.024,3.269,5.393,7.441,5.393s7.442-2.369,7.442-5.393   C57.916,63.622,54.646,61.252,50.474,61.252z M50.474,70.039c-2.949,0-5.441-1.554-5.441-3.393c0-1.84,2.492-3.395,5.441-3.395   c2.95,0,5.442,1.555,5.442,3.395C55.916,68.485,53.424,70.039,50.474,70.039z"/><path d="M49.413,42.832c3.554,0,6.445-2.892,6.445-6.446c0-3.554-2.892-6.445-6.445-6.445c-3.555,0-6.446,2.891-6.446,6.445   C42.967,39.94,45.858,42.832,49.413,42.832z M49.413,31.94c2.451,0,4.445,1.994,4.445,4.445c0,2.452-1.994,4.446-4.445,4.446   c-2.452,0-4.446-1.995-4.446-4.446C44.967,33.935,46.961,31.94,49.413,31.94z"/><path d="M58.135,56.521c-0.984-0.345-2.95-0.917-3.012-0.935c-2.822-0.889-5.697-2.02-5.629-3.663   c0.042-1.022,0.699-1.525,2.52-1.977c4.374-0.682,7.564-2.509,9.482-5.428c2.612-3.976,2.09-8.943,1.663-11.186   c0.176-0.047,0.35-0.096,0.524-0.144c0.521-0.145,1.012-0.282,1.538-0.38c0.474-0.088,0.816-0.501,0.816-0.983v-8.024   c0-0.364-0.197-0.698-0.516-0.875c-0.317-0.177-0.705-0.166-1.015,0.026c-1.391,0.87-2.91,1.292-4.645,1.292   c-1.768,0-3.479-0.422-5.135-0.83c-1.013-0.25-1.97-0.486-2.875-0.605c-7.734-1.021-14.085,2.772-16.082,9.448   c-1.682,5.62,0.313,11.592,4.979,15.234c-0.796,0.943-1.717,2.567-1.717,5.036c0,2.253,0.731,3.818,1.471,4.824   c-3.688,2.405-6.013,6.158-6.013,9.837c0,6.348,7.092,11.513,15.81,11.513c8.717,0,15.809-5.165,15.809-11.513   C66.109,61.817,63.575,58.427,58.135,56.521z M50.301,76.702c-7.614,0-13.81-4.268-13.81-9.513c0-3.251,2.428-6.756,6.041-8.721   c0.285-0.155,0.477-0.438,0.516-0.76c0.038-0.322-0.081-0.642-0.321-0.86c-0.633-0.573-1.693-1.896-1.693-4.321   c0-2.75,1.431-4.021,1.869-4.345c0.263-0.194,0.414-0.505,0.405-0.832c-0.01-0.327-0.178-0.629-0.451-0.809   c-4.707-3.093-6.735-8.475-5.169-13.711c1.185-3.96,4.861-8.192,11.628-8.192c0.736,0,1.503,0.052,2.276,0.153   c0.796,0.105,1.7,0.328,2.658,0.564c1.688,0.417,3.603,0.888,5.613,0.888c1.507,0,2.886-0.264,4.175-0.802v5.58   c-0.306,0.076-0.602,0.159-0.892,0.239c-0.449,0.125-0.898,0.251-1.376,0.348c-0.269,0.055-0.503,0.218-0.648,0.45   c-0.145,0.233-0.188,0.515-0.119,0.781c0.272,1.052,1.497,6.508-1.178,10.58c-1.596,2.428-4.327,3.958-8.205,4.567   c-1.3,0.321-4.006,0.987-4.124,3.854c-0.131,3.133,3.559,4.561,7.047,5.66c0.02,0.005,1.997,0.581,2.93,0.908   c4.652,1.629,6.637,4.255,6.637,8.78C64.109,72.434,57.915,76.702,50.301,76.702z"/></g></svg>